<!DOCTYPE svg PUBLIC "-//W3C//DTD SVG 1.1//EN" "http://www.w3.org/Graphics/SVG/1.1/DTD/svg11.dtd">
<!-- Uploaded to: SVG Repo, www.svgrepo.com, Transformed by: SVG Repo Mixer Tools -->
<svg width="800px" height="800px" viewBox="0 0 1024 1024" class="icon" version="1.1" xmlns="http://www.w3.org/2000/svg" fill="#000000">
<g id="SVGRepo_bgCarrier" stroke-width="0"/>
<g id="SVGRepo_tracerCarrier" stroke-linecap="round" stroke-linejoin="round"/>
<g id="SVGRepo_iconCarrier">
<path d="M512 512m-480 0a480 480 0 1 0 960 0 480 480 0 1 0-960 0Z" fill="#0f172a"/>
<path d="M294.4 345.6c0-25.6 25.6-51.2 51.2-51.2h435.2c25.6 0 44.8 19.2 44.8 44.8v288c0 25.6-19.2 44.8-44.8 44.8H345.6c-25.6 0-44.8-19.2-44.8-44.8V345.6z" fill="#7ed5f9"/>
<path d="M224 390.4c0-25.6 19.2-44.8 44.8-44.8H704c25.6 0 44.8 19.2 44.8 44.8v288c0 25.6-19.2 44.8-44.8 44.8H268.8c-25.6 0-44.8-19.2-44.8-44.8V390.4z" fill="#64a9c5"/>
<path d="M224 416h524.8v51.2H224zM268.8 582.4h96v70.4H268.8z" fill="#FFFFFF"/>
</g>
</svg>